<?xml version="1.0" standalone="no"?>
<!DOCTYPE svg PUBLIC "-//W3C//DTD SVG 20010904//EN"
 "http://www.w3.org/TR/2001/REC-SVG-20010904/DTD/svg10.dtd">
<svg version="1.0" xmlns="http://www.w3.org/2000/svg"
 width="1186.000000pt" height="1280.000000pt" viewBox="0 0 1186.000000 1280.000000"
 preserveAspectRatio="xMidYMid meet">
<metadata>
Created by potrace 1.15, written by Peter Selinger 2001-2017
</metadata>
<g transform="translate(0.000000,1280.000000) scale(0.100000,-0.100000)"
fill="#000000" stroke="none">
<path d="M10050 12779 c-301 -63 -558 -266 -686 -543 -130 -283 -114 -624 44
-891 144 -244 392 -417 670 -465 91 -16 267 -13 358 5 429 89 742 452 771 896
40 622 -544 1126 -1157 998z m366 -254 c172 -39 347 -168 441 -326 102 -171
124 -402 58 -592 -173 -493 -821 -630 -1178 -248 -127 136 -186 288 -186 481
0 160 38 285 123 404 172 241 449 346 742 281z"/>
<path d="M8673 11893 c-682 -625 -1041 -933 -1453 -1249 -321 -246 -722 -514
-1025 -684 -33 -19 -123 -74 -199 -123 -292 -186 -425 -307 -497 -452 -75
-152 -90 -336 -36 -442 76 -148 266 -247 440 -229 75 8 146 40 332 150 569
339 1044 791 1833 1746 349 421 536 709 785 1210 110 221 199 410 193 410 -2
0 -170 -152 -373 -337z"/>
<path d="M4367 11900 c-327 -59 -616 -289 -745 -594 -56 -133 -76 -232 -76
-381 -1 -236 62 -425 204 -613 193 -256 522 -409 839 -389 500 31 894 411 940
905 45 488 -266 926 -749 1057 -74 20 -334 29 -413 15z"/>
<path d="M9835 10743 c-228 -9 -544 -24 -627 -30 -97 -6 -98 -6 -98 -32 0 -54
43 -225 120 -481 131 -439 156 -560 225 -1130 26 -212 49 -386 50 -388 8 -10
175 80 194 104 23 29 24 30 17 244 -9 341 -50 633 -142 1020 -32 135 -98 384
-111 416 -6 16 448 19 1449 7 l585 -6 -24 -81 c-13 -45 -42 -153 -64 -240
-118 -469 -165 -786 -176 -1192 l-6 -231 69 -6 c38 -4 90 -7 116 -7 l47 0 10
53 c15 72 35 209 76 510 63 463 70 496 197 967 72 267 119 462 113 468 -6 6
-237 19 -578 32 -243 9 -1246 11 -1442 3z"/>
<path d="M3245 9291 c-166 -26 -353 -106 -530 -226 -369 -250 -970 -825 -1404
-1344 -461 -552 -849 -1150 -1115 -1718 -92 -197 -188 -423 -184 -435 7 -19
232 174 393 336 94 94 262 275 374 401 229 258 568 601 741 749 354 303 699
554 1450 1052 682 454 757 518 812 697 55 181 -37 384 -210 465 -50 24 -71 27
-167 29 -60 1 -133 -2 -160 -6z"/>
<path d="M6585 7586 c-192 -55 -397 -152 -555 -264 -112 -79 -331 -294 -417
-407 -209 -279 -311 -490 -363 -754 -19 -95 -22 -135 -17 -240 5 -137 22 -204
82 -337 105 -230 363 -329 550 -211 28 17 116 96 198 176 125 123 146 141 142
115 -3 -16 -21 -139 -41 -274 -100 -700 -184 -974 -579 -1880 -139 -319 -291
-698 -282 -706 3 -3 325 381 481 575 888 1106 1345 2005 1506 2966 45 271 11
643 -80 871 -71 180 -158 288 -276 344 -64 31 -77 34 -184 37 -78 2 -131 -2
-165 -11z"/>
<path d="M4375 5855 c-147 -28 -233 -74 -334 -181 -115 -121 -226 -311 -369
-634 -252 -570 -416 -1088 -726 -2300 -217 -851 -208 -818 -465 -1680 -172
-579 -303 -1041 -298 -1047 6 -5 238 323 384 542 251 376 368 565 851 1374
178 300 381 635 450 745 217 349 583 1044 726 1379 191 446 268 755 296 1188
9 131 8 169 -5 230 -19 94 -63 183 -122 249 -110 122 -231 165 -388 135z"/>
</g>
</svg>
