<?xml version="1.0" standalone="no"?>
<!DOCTYPE svg PUBLIC "-//W3C//DTD SVG 20010904//EN"
 "http://www.w3.org/TR/2001/REC-SVG-20010904/DTD/svg10.dtd">
<svg version="1.0" xmlns="http://www.w3.org/2000/svg"
 width="1280.000000pt" height="1106.000000pt" viewBox="0 0 1280.000000 1106.000000"
 preserveAspectRatio="xMidYMid meet">
<metadata>
Created by potrace 1.15, written by Peter Selinger 2001-2017
</metadata>
<g transform="translate(0.000000,1106.000000) scale(0.100000,-0.100000)"
fill="#000000" stroke="none">
<path d="M4030 11054 c-244 -45 -426 -133 -564 -270 -260 -262 -346 -636 -216
-947 52 -126 118 -227 204 -312 316 -316 810 -374 1204 -143 31 18 102 78 157
133 122 122 189 230 242 390 34 102 36 119 37 235 1 102 -3 139 -22 205 -43
149 -132 311 -226 414 -114 123 -293 224 -480 272 -76 19 -280 33 -336 23z"/>
<path d="M8680 10451 c-227 -33 -433 -150 -565 -321 -335 -435 -195 -1059 290
-1300 150 -74 201 -85 390 -85 139 1 170 4 235 24 283 87 496 299 585 581 36
115 45 289 21 410 -19 92 -65 209 -118 297 -104 172 -307 320 -511 372 -88 23
-247 33 -327 22z m262 -267 c158 -38 319 -168 392 -315 206 -419 -109 -901
-574 -876 -122 6 -209 34 -304 98 -95 63 -156 133 -207 234 -75 152 -86 299
-35 461 58 180 214 334 399 394 91 29 221 31 329 4z"/>
<path d="M8115 10329 c-38 -4 -115 -17 -170 -28 -327 -66 -592 -122 -675 -140
-416 -94 -1023 -280 -1675 -514 -994 -356 -1102 -399 -1505 -603 -275 -139
-367 -195 -471 -286 l-88 -78 -1703 -2 -1703 -3 -3 -127 -3 -128 436 0 435 0
0 -187 0 -186 -439 6 -438 6 -6 -102 c-4 -55 -5 -103 -3 -105 3 -2 203 -6 445
-9 l441 -6 0 -210 0 -210 -439 5 -438 5 -6 -101 c-3 -56 -3 -103 0 -106 2 -3
201 -7 441 -10 l437 -5 3 -421 2 -420 -438 4 -439 4 -6 -98 c-3 -54 -3 -102
-1 -106 3 -4 132 -8 287 -8 155 0 353 -3 440 -7 l157 -6 0 -504 0 -503 -435 0
-436 0 3 -127 3 -128 1690 -3 1691 -2 53 -123 c78 -180 219 -439 402 -743 336
-558 432 -724 524 -909 112 -229 167 -364 236 -590 28 -93 74 -242 101 -330
180 -590 387 -1378 514 -1957 26 -119 51 -215 55 -212 16 9 20 174 10 394 -43
917 -35 831 -162 1651 -44 288 -96 625 -115 749 -61 402 -112 625 -286 1230
-120 420 -230 841 -222 850 8 7 59 -57 96 -123 211 -370 306 -501 708 -977
285 -338 324 -386 473 -581 237 -313 361 -527 610 -1059 68 -146 174 -368 234
-495 113 -235 178 -387 416 -970 136 -333 185 -467 207 -562 11 -51 13 -53 45
-53 l33 0 -68 333 c-112 545 -224 1028 -275 1187 -13 41 -65 203 -115 360
-100 312 -177 547 -337 1035 -112 341 -161 457 -622 1483 -99 222 -181 405
-181 408 0 2 1557 4 3460 4 l3460 0 0 130 0 130 -705 0 -705 0 0 435 0 435
283 -1 c155 -1 456 -4 668 -8 l386 -6 6 100 c3 55 4 102 1 106 -2 4 -305 10
-674 14 l-670 8 0 424 0 425 98 -6 c53 -3 354 -8 668 -12 l571 -6 6 103 c4 57
5 104 4 105 -1 2 -259 5 -572 9 -314 3 -616 8 -672 11 l-103 6 0 210 0 209
208 -5 c114 -3 414 -8 668 -12 l461 -5 6 102 c4 57 5 104 4 105 -1 1 -191 5
-422 8 -231 4 -534 9 -672 12 l-253 6 0 254 0 254 705 0 705 0 0 130 0 130
-3860 -2 c-2123 -2 -3860 -1 -3860 2 0 8 168 144 275 221 218 159 458 301 774
459 204 102 271 134 736 345 149 67 461 210 695 318 234 107 463 207 509 222
89 28 175 68 186 85 7 11 3 11 -100 -1z m-3141 -1910 c3 -3 -2 -30 -11 -60 -9
-30 -16 -84 -17 -120 0 -59 5 -76 46 -159 l47 -93 -151 6 c-83 4 -189 7 -235
7 l-83 0 0 179 0 178 43 16 c23 9 69 23 102 31 33 8 69 17 80 20 26 6 172 3
179 -5z m-2554 -196 l0 -196 -427 6 c-236 4 -510 7 -610 7 l-183 0 0 190 0
190 610 0 610 0 0 -197z m890 -3 l0 -200 -337 2 -338 3 -3 198 -2 197 340 0
340 0 0 -200z m3450 -25 l0 -225 -152 0 -153 0 -75 41 c-76 41 -276 173 -450
297 -64 45 -96 75 -98 90 l-3 22 465 0 466 0 0 -225z m1300 -9 l0 -235 -392 5
c-216 2 -462 7 -545 10 l-153 6 0 224 0 224 545 0 545 0 0 -234z m1520 -12 l0
-245 -307 6 c-170 3 -464 8 -655 11 l-348 6 0 234 0 234 655 0 655 0 0 -246z
m1560 -10 l0 -256 -352 6 c-194 4 -498 9 -675 12 l-323 6 0 244 0 244 675 0
675 0 0 -256z m-6782 -160 c-2 -1 -191 0 -420 3 l-417 6 -3 98 -3 97 46 -48
c25 -26 66 -59 90 -72 40 -21 56 -23 169 -22 114 0 133 3 221 33 52 18 144 58
205 90 l109 59 3 -121 c1 -66 1 -121 0 -123z m-2380 -181 l442 -6 0 -209 0
-208 -182 0 c-101 0 -375 3 -610 7 l-428 6 0 209 0 208 168 0 c92 0 366 -3
610 -7z m1327 -228 l0 -210 -22 1 c-13 0 -165 1 -338 2 l-315 2 0 210 0 210
338 -2 337 -3 0 -210z m823 198 l232 -6 0 -210 0 -210 -287 6 c-157 4 -346 7
-420 7 l-133 0 0 210 0 210 188 0 c103 0 292 -3 420 -7z m1178 -79 c78 -59
270 -164 300 -164 11 0 14 -20 14 -99 l0 -98 -332 4 c-183 2 -420 6 -525 9
l-193 6 0 210 0 209 326 -7 327 -7 83 -63z m2502 30 l252 -6 0 -152 0 -153
-152 33 c-331 71 -599 144 -825 226 -62 22 -113 46 -113 52 0 12 353 12 838 0z
m1500 -20 l272 -6 0 -210 0 -209 -402 6 c-421 7 -515 15 -790 67 l-118 22 0
173 0 173 383 -5 c210 -3 505 -8 655 -11z m1500 -20 l332 -6 0 -210 0 -209
-502 6 c-277 3 -581 8 -675 11 l-173 6 0 209 0 209 343 -5 c188 -3 492 -8 675
-11z m-4798 -305 l135 -48 -157 0 -158 -1 0 56 c0 53 1 55 23 48 12 -4 83 -28
157 -55z m-3823 -209 l233 0 0 -423 0 -423 -247 3 c-137 2 -411 6 -610 9
l-363 6 0 421 0 420 377 -6 c207 -4 481 -7 610 -7z m1031 -16 l92 -7 0 -413
c0 -249 -4 -415 -9 -419 -6 -3 -159 -2 -340 1 l-331 7 0 419 0 418 248 0 c137
0 290 -3 340 -6z m850 -11 l292 -6 0 -419 0 -418 -187 0 c-104 0 -293 3 -420
7 l-233 6 0 419 0 418 128 0 c70 0 259 -3 420 -7z m1390 -19 l162 -6 0 -421 0
-420 -227 6 c-124 4 -361 7 -525 7 l-298 0 0 423 0 423 363 -3 c199 -2 435 -6
525 -9z m1100 -14 l202 0 0 -420 0 -420 -307 0 c-170 0 -379 3 -465 7 l-158 6
0 420 0 420 263 -6 c144 -4 353 -7 465 -7z m652 -26 c83 -10 274 -18 493 -21
l357 -6 0 -405 0 -405 -392 6 c-215 4 -460 7 -545 7 l-153 0 0 423 0 422 52
-3 c29 -2 114 -10 188 -18z m2063 -11 l307 -6 0 -420 0 -419 -602 6 c-332 4
-627 9 -655 12 l-53 5 0 409 0 409 28 4 c47 7 652 7 975 0z m1390 -19 l477 -6
0 -420 0 -420 -657 7 c-362 4 -666 9 -675 11 -17 5 -18 34 -18 425 l0 420 198
-6 c108 -3 412 -8 675 -11z m-8395 -940 l152 -6 0 -494 0 -494 -610 0 -610 0
0 505 0 506 458 -6 c251 -3 526 -8 610 -11z m840 -11 l202 -6 0 -489 0 -488
-340 0 -340 0 0 495 0 495 138 0 c75 0 228 -3 340 -7z m1250 -18 c1 -1 1 -168
0 -371 l-3 -369 -49 70 c-150 212 -340 360 -519 406 -42 10 -56 9 -114 -10
-37 -12 -86 -35 -110 -52 -24 -16 -45 -29 -46 -29 -1 0 -1 83 1 184 l3 185
417 -6 c229 -3 418 -7 420 -8z m990 -12 l272 -6 0 -434 0 -434 -147 151 c-228
235 -331 302 -522 340 -57 11 -114 20 -128 20 -40 0 -191 -106 -224 -158 l-29
-46 0 287 0 287 253 0 c140 0 376 -3 525 -7z m1400 -18 c9 -4 12 -106 12 -470
l0 -465 -307 0 c-170 0 -379 3 -465 7 l-158 6 0 467 0 467 453 -4 c248 -2 458
-6 465 -8z m905 -12 l407 -6 0 -459 0 -458 -545 0 -545 0 0 465 0 465 138 0
c76 0 322 -3 545 -7z m1505 -20 l422 -6 0 -449 0 -448 -655 0 -655 0 0 455 0
455 233 0 c129 0 423 -3 655 -7z m1975 -30 c4 -2 7 -200 7 -439 l0 -434 -675
0 -675 0 0 446 0 447 668 -8 c367 -4 670 -9 675 -12z"/>
</g>
</svg>
