<?xml version="1.0" standalone="no"?>
<!DOCTYPE svg PUBLIC "-//W3C//DTD SVG 20010904//EN"
 "http://www.w3.org/TR/2001/REC-SVG-20010904/DTD/svg10.dtd">
<svg version="1.0" xmlns="http://www.w3.org/2000/svg"
 width="669.000000pt" height="1280.000000pt" viewBox="0 0 669.000000 1280.000000"
 preserveAspectRatio="xMidYMid meet">
<metadata>
Created by potrace 1.15, written by Peter Selinger 2001-2017
</metadata>
<g transform="translate(0.000000,1280.000000) scale(0.100000,-0.100000)"
fill="#000000" stroke="none">
<path d="M3226 12574 c-40 -7 -114 -35 -173 -64 -247 -121 -398 -346 -412
-615 -5 -89 -9 -110 -21 -110 -12 0 -16 20 -21 95 -21 314 -204 563 -489 664
-75 27 -101 31 -221 34 -117 3 -148 1 -215 -18 -132 -36 -227 -92 -330 -195
-81 -80 -98 -103 -142 -195 -60 -125 -75 -191 -75 -325 1 -226 114 -453 293
-587 93 -70 266 -135 386 -145 l71 -6 6 -96 c13 -206 105 -392 258 -520 141
-118 293 -173 479 -174 137 0 211 16 325 73 136 67 271 198 335 325 44 88 80
235 80 328 0 42 3 77 8 77 21 -1 27 -23 29 -101 1 -59 10 -110 29 -170 45
-144 87 -213 194 -320 83 -83 110 -103 191 -142 52 -26 117 -51 144 -58 80
-19 279 -16 355 5 325 91 559 383 560 697 l0 76 71 7 c181 18 317 78 442 195
153 144 229 305 242 511 6 93 3 116 -19 202 -68 268 -249 456 -516 539 -63 20
-96 24 -205 23 -115 0 -140 -4 -215 -28 -103 -34 -149 -57 -215 -106 -194
-146 -305 -361 -305 -591 0 -61 -2 -69 -19 -69 -17 0 -19 10 -23 108 -7 168
-64 307 -186 450 -52 61 -196 161 -274 190 -134 50 -287 63 -422 36z m-1262
-189 c144 -25 266 -107 349 -233 67 -101 91 -176 91 -290 l1 -96 -102 -51
c-161 -82 -270 -189 -347 -342 -34 -68 -38 -73 -69 -73 -153 1 -301 63 -408
169 -109 109 -159 230 -159 388 0 68 6 110 21 156 64 191 221 333 410 371 95
18 117 18 213 1z m1541 -7 c83 -18 175 -71 251 -144 111 -108 164 -234 164
-392 0 -70 -3 -84 -17 -89 -65 -22 -167 -77 -221 -118 -74 -56 -161 -163 -208
-257 l-34 -68 -64 0 -64 0 -12 35 c-21 63 -105 179 -181 248 -68 63 -201 142
-266 159 -21 6 -23 12 -23 81 0 169 55 302 170 410 144 136 304 179 505 135z
m1548 -7 c94 -33 153 -70 220 -140 105 -108 157 -235 157 -381 0 -151 -52
-273 -165 -385 -108 -108 -217 -154 -362 -155 l-73 0 -31 63 c-86 170 -202
281 -369 354 -90 39 -94 50 -79 186 14 132 56 222 148 320 68 73 180 135 285
157 63 14 204 4 269 -19z m-2344 -837 c58 -134 192 -268 348 -347 l103 -52 0
-85 c0 -154 -50 -280 -151 -381 -166 -167 -416 -207 -638 -102 -77 37 -181
139 -224 221 -51 97 -67 162 -67 266 l0 91 69 28 c92 37 175 92 240 158 53 54
147 195 157 237 6 20 12 22 73 22 l66 0 24 -56z m1531 -31 c63 -125 182 -243
306 -305 49 -24 99 -47 112 -50 20 -6 22 -12 22 -75 0 -167 -51 -298 -157
-402 -115 -112 -233 -161 -388 -161 -160 0 -294 57 -396 169 -101 110 -149
235 -149 387 l0 75 38 15 c186 72 323 193 406 358 l38 76 61 0 62 0 45 -87z"/>
<path d="M1915 9396 c-93 -29 -88 -138 17 -393 28 -68 230 -439 268 -493 42
-59 94 -213 140 -414 54 -232 66 -274 116 -420 69 -199 75 -236 73 -459 -1
-111 1 -258 5 -327 3 -69 8 -195 10 -280 4 -184 21 -278 80 -465 44 -136 45
-140 27 -160 -10 -11 -73 -103 -139 -205 -171 -262 -165 -254 -224 -292 -96
-63 -182 -115 -226 -137 -85 -43 -254 -211 -347 -344 -12 -18 -43 -38 -79 -52
-72 -29 -137 -91 -166 -156 -18 -43 -21 -75 -25 -259 -5 -208 -5 -212 25 -343
34 -145 34 -186 4 -377 -11 -68 -14 -125 -9 -205 l7 -110 -36 -50 c-89 -125
-97 -140 -94 -170 2 -21 13 -36 38 -53 19 -12 40 -36 47 -52 10 -24 18 -30 43
-30 28 0 30 -3 30 -36 0 -44 15 -74 38 -74 24 0 42 -19 42 -46 0 -13 8 -30 17
-39 17 -18 24 -18 156 1 40 6 53 3 86 -19 51 -34 174 -71 236 -71 84 0 162 57
243 179 59 89 106 183 129 260 12 39 24 61 35 63 27 5 58 -34 58 -73 0 -23 8
-41 23 -55 l22 -21 3 32 c6 56 -7 96 -39 123 -29 25 -29 26 -13 51 16 24 16
25 -9 25 -14 0 -29 -5 -32 -10 -9 -14 -25 -12 -25 2 0 7 -17 40 -37 73 -34 54
-37 67 -38 128 0 67 1 69 28 74 15 3 30 9 33 14 2 4 11 6 19 2 8 -3 15 0 15 6
0 6 7 11 15 11 8 0 15 5 15 11 0 8 15 9 48 5 l47 -7 -24 19 -24 20 34 7 c27 6
30 9 15 14 -17 6 -16 10 13 38 17 18 34 48 40 73 8 38 7 42 -15 52 -13 6 -24
15 -24 20 0 5 -9 21 -19 36 -17 22 -19 35 -12 70 l9 43 -29 -6 c-17 -4 -29 -2
-29 4 0 14 -94 -15 -152 -47 -26 -15 -50 -23 -54 -19 -12 12 21 70 90 162 60
78 146 240 176 330 18 53 114 153 177 181 28 13 55 29 58 34 3 6 30 10 60 10
30 0 57 5 61 11 4 7 18 -1 38 -20 17 -16 57 -42 89 -56 70 -32 167 -37 237
-12 25 9 62 17 82 17 21 0 78 7 128 16 107 18 152 12 292 -39 321 -118 369
-132 645 -192 60 -13 164 -63 212 -102 28 -23 53 -152 74 -378 16 -173 35
-244 88 -330 17 -27 48 -102 69 -165 20 -63 52 -146 69 -185 86 -185 141 -349
141 -418 0 -34 -9 -64 -30 -104 -33 -61 -36 -79 -18 -118 15 -33 115 -104 202
-144 42 -19 94 -54 135 -91 134 -123 255 -221 280 -227 14 -3 40 -16 56 -29
17 -12 47 -25 67 -29 33 -6 41 -4 68 24 35 35 36 60 2 77 -27 13 -122 120
-122 137 0 23 -119 307 -139 333 -11 14 -23 39 -27 57 -3 18 -20 59 -36 91
-43 85 -150 346 -181 441 -15 44 -33 123 -41 175 -36 231 -66 392 -90 475 -53
185 -79 319 -86 455 -10 167 -20 200 -75 253 -53 52 -67 66 -127 128 -31 32
-79 64 -139 95 -51 25 -116 63 -144 84 -99 73 -309 173 -595 283 -53 21 -149
70 -213 111 -64 40 -148 87 -187 102 -69 29 -70 29 -76 74 -8 62 -60 260 -90
345 -14 39 -28 78 -31 88 -5 15 2 17 53 17 41 0 69 6 92 20 38 23 39 33 11 61
-20 20 -28 21 -100 15 -93 -9 -100 0 -43 55 48 46 94 120 94 151 0 14 12 51
26 82 33 73 31 130 -7 134 -21 2 -33 -8 -72 -60 -25 -35 -71 -87 -101 -117
-55 -54 -55 -54 -65 -30 -6 13 -31 78 -56 143 -49 129 -75 176 -198 360 -114
171 -120 188 -123 331 -4 135 -12 223 -26 269 -5 17 -13 105 -18 196 -10 175
-24 245 -67 318 -14 23 -44 84 -67 135 -23 51 -97 193 -165 315 -154 279 -165
319 -116 424 14 29 25 63 25 75 0 33 -49 84 -107 109 -74 33 -154 93 -274 208
-57 54 -122 107 -144 117 -22 11 -49 26 -59 34 -11 8 -22 15 -25 14 -3 -1 -24
-7 -46 -13z m855 -3626 c-18 -11 -22 -7 -14 14 5 13 10 14 18 6 8 -8 7 -13 -4
-20z"/>
<path d="M0 1015 l0 -375 288 0 c269 0 2411 -11 5190 -25 l1212 -7 0 376 c0
207 -1 376 -2 377 -8 1 -5691 28 -6145 29 l-543 0 0 -375z"/>
</g>
</svg>
