<?xml version="1.0" standalone="no"?>
<!DOCTYPE svg PUBLIC "-//W3C//DTD SVG 20010904//EN"
 "http://www.w3.org/TR/2001/REC-SVG-20010904/DTD/svg10.dtd">
<svg version="1.0" xmlns="http://www.w3.org/2000/svg"
 width="1072.000000pt" height="1280.000000pt" viewBox="0 0 1072.000000 1280.000000"
 preserveAspectRatio="xMidYMid meet">
<metadata>
Created by potrace 1.15, written by Peter Selinger 2001-2017
</metadata>
<g transform="translate(0.000000,1280.000000) scale(0.100000,-0.100000)"
fill="#000000" stroke="none">
<path d="M9380 12794 c-14 -2 -56 -9 -95 -15 -89 -15 -221 -60 -305 -106 -307
-166 -501 -429 -566 -770 -38 -198 0 -415 109 -625 86 -168 233 -328 380 -416
79 -48 221 -107 319 -134 112 -30 396 -33 498 -4 292 81 481 207 632 421 132
187 198 389 198 610 0 269 -102 510 -302 713 -147 150 -341 260 -545 307 -66
16 -273 28 -323 19z"/>
<path d="M5930 10903 c-74 -1 -317 -9 -540 -17 -223 -9 -589 -20 -815 -26
-507 -13 -823 -27 -1025 -45 -161 -15 -330 -43 -330 -56 0 -11 123 -57 197
-73 37 -8 102 -20 143 -27 41 -6 127 -22 190 -36 63 -13 158 -33 210 -43 52
-11 205 -42 340 -70 135 -28 288 -59 340 -70 52 -10 205 -42 340 -70 135 -28
288 -59 340 -70 83 -17 187 -38 685 -141 55 -12 116 -25 135 -29 337 -74 621
-109 1081 -131 284 -14 515 -2 659 33 292 70 405 263 293 495 -102 211 -456
355 -898 368 -190 6 -1152 11 -1345 8z"/>
<path d="M10055 10506 c-33 -13 -88 -37 -122 -54 l-62 -32 -25 -82 c-77 -249
-133 -567 -196 -1098 -28 -241 -70 -551 -87 -634 l-5 -29 -107 7 c-123 9 -186
22 -355 76 -168 53 -202 61 -518 125 -152 30 -332 71 -400 90 -129 36 -421
106 -523 125 -33 6 -93 10 -134 8 l-73 -3 106 -112 c58 -61 148 -145 199 -186
134 -108 545 -405 667 -482 218 -137 792 -402 985 -453 173 -46 399 -45 481 3
64 38 146 117 236 229 370 459 592 1081 592 1656 0 130 -5 196 -18 255 -49
224 -127 375 -261 508 -88 87 -132 107 -237 107 -62 -1 -98 -7 -143 -24z"/>
<path d="M3650 8120 c-172 -7 -428 -15 -1420 -40 -879 -23 -1377 -42 -1570
-60 -58 -5 -178 -14 -268 -20 -174 -11 -268 -27 -348 -58 l-49 -20 43 -11
c104 -27 122 -32 173 -42 30 -5 78 -14 107 -20 28 -5 77 -13 107 -19 30 -5 79
-14 108 -20 28 -5 324 -59 657 -120 333 -61 629 -115 658 -120 28 -6 77 -14
107 -20 30 -5 79 -14 108 -20 28 -5 176 -32 327 -60 151 -28 298 -55 325 -60
28 -5 174 -32 325 -60 151 -28 298 -55 325 -60 392 -71 656 -121 890 -170 323
-68 723 -132 1060 -169 172 -19 248 -25 645 -53 245 -18 782 -17 885 1 319 55
542 162 744 356 l93 90 -6 67 c-7 79 -43 180 -85 242 -63 92 -153 160 -314
240 -199 98 -338 144 -567 187 -251 47 -334 49 -1644 47 -677 0 -1314 -4
-1416 -8z"/>
<path d="M8237 7236 c-163 -68 -279 -173 -351 -316 -109 -217 -156 -435 -163
-753 -7 -275 -1 -340 82 -957 19 -140 43 -336 55 -435 26 -223 50 -409 96
-725 55 -387 91 -613 279 -1755 36 -220 95 -575 130 -790 111 -674 246 -1370
279 -1432 8 -16 25 -38 39 -51 l25 -23 6 73 c13 146 60 868 106 1638 5 91 14
239 20 330 14 233 28 475 40 690 6 102 15 250 20 330 5 80 14 246 20 370 11
217 30 504 50 735 47 550 49 827 11 1480 -35 618 -65 821 -155 1082 -97 276
-181 382 -385 483 -107 53 -132 56 -204 26z"/>
</g>
</svg>
