<?xml version="1.0" standalone="no"?>
<!DOCTYPE svg PUBLIC "-//W3C//DTD SVG 20010904//EN"
 "http://www.w3.org/TR/2001/REC-SVG-20010904/DTD/svg10.dtd">
<svg version="1.0" xmlns="http://www.w3.org/2000/svg"
 width="1208.000000pt" height="1280.000000pt" viewBox="0 0 1208.000000 1280.000000"
 preserveAspectRatio="xMidYMid meet">
<metadata>
Created by potrace 1.15, written by Peter Selinger 2001-2017
</metadata>
<g transform="translate(0.000000,1280.000000) scale(0.100000,-0.100000)"
fill="#000000" stroke="none">
<path d="M9575 12784 c-625 -128 -1011 -278 -1324 -512 -118 -89 -294 -255
-402 -381 -223 -257 -353 -502 -405 -761 -15 -75 -15 -98 -5 -193 11 -89 33
-189 68 -308 3 -10 -26 -41 -86 -92 -138 -118 -1241 -1132 -1861 -1711 -324
-303 -1443 -1414 -1518 -1507 -132 -164 -222 -319 -286 -491 -85 -229 -89
-424 -12 -576 28 -55 103 -128 141 -138 14 -3 96 -4 183 -2 133 5 171 10 247
32 190 57 362 160 525 313 156 147 614 680 819 952 48 64 213 312 368 551 154
239 438 674 630 965 647 981 945 1430 952 1438 5 5 34 -37 65 -92 108 -190
270 -424 395 -569 132 -152 329 -278 474 -303 101 -17 240 -8 305 21 90 39
179 153 224 285 26 77 21 180 -11 245 -15 29 -96 118 -235 255 -218 216 -407
442 -495 593 -90 154 -106 282 -52 411 41 98 284 560 334 636 146 219 369 424
792 725 72 51 149 111 173 134 47 45 88 97 75 95 -4 -1 -39 -8 -78 -15z"/>
<path d="M10360 11916 c-345 -73 -622 -316 -734 -647 -37 -111 -49 -206 -43
-354 9 -239 93 -441 255 -617 225 -243 575 -355 902 -288 624 127 959 804 680
1376 -124 256 -336 432 -620 514 -96 28 -340 37 -440 16z"/>
<path d="M1060 11731 c-123 -27 -240 -75 -339 -141 -425 -285 -562 -830 -321
-1277 280 -520 960 -669 1436 -315 542 403 517 1217 -50 1593 -210 139 -483
191 -726 140z"/>
<path d="M5371 10110 c-28 -28 -90 -106 -138 -174 -48 -68 -181 -227 -295
-353 -400 -444 -561 -573 -868 -692 -521 -203 -1161 -164 -1845 114 -177 72
-241 88 -341 83 -67 -4 -94 -10 -156 -40 -88 -42 -151 -95 -180 -152 -17 -33
-20 -53 -16 -116 6 -108 54 -196 168 -310 220 -220 449 -340 755 -396 120 -22
559 -30 761 -15 767 59 1266 346 1679 966 52 77 121 192 154 255 117 225 397
880 376 880 -2 0 -27 -23 -54 -50z"/>
<path d="M10510 9588 c-110 -42 -205 -173 -245 -339 -15 -61 -16 -79 -6 -126
20 -88 83 -201 168 -298 227 -263 386 -491 504 -726 132 -265 179 -450 150
-601 -16 -81 -103 -248 -225 -433 -171 -258 -321 -436 -651 -775 -188 -192
-295 -313 -295 -333 0 -8 135 21 252 54 225 63 586 188 673 232 268 135 571
393 778 664 136 179 204 307 239 452 74 309 -95 1036 -369 1586 -157 316 -327
496 -568 606 -135 61 -302 76 -405 37z"/>
<path d="M479 9360 c-156 -27 -335 -227 -417 -465 -47 -138 -57 -218 -56 -445
1 -368 63 -700 199 -1068 156 -422 316 -695 526 -898 96 -92 136 -122 182
-135 53 -15 264 -12 350 6 244 50 655 225 957 407 326 197 730 506 1004 767
60 58 146 170 146 192 0 18 -281 -57 -492 -132 -283 -101 -346 -121 -583 -185
-409 -111 -546 -158 -770 -264 -145 -69 -204 -89 -287 -97 -37 -3 -68 -4 -68
-2 0 2 -11 83 -25 179 -33 234 -56 471 -105 1045 -44 522 -58 611 -130 818
-62 178 -62 178 -127 214 -98 53 -217 78 -304 63z"/>
<path d="M8525 7418 c-216 -40 -442 -160 -619 -327 -68 -65 -283 -330 -471
-581 -305 -408 -525 -749 -735 -1140 -104 -193 -971 -1730 -1487 -2635 -393
-691 -519 -922 -507 -934 2 -2 38 22 81 53 175 125 574 540 1818 1886 236 256
488 528 560 606 143 153 332 369 720 819 137 160 322 371 410 470 89 99 189
215 223 259 196 246 370 581 444 856 29 104 31 337 5 425 -26 82 -71 165 -118
214 l-40 41 -117 -1 c-64 -1 -139 -5 -167 -11z"/>
<path d="M2704 6546 c-220 -168 -368 -382 -428 -622 -55 -219 -66 -400 -61
-1004 4 -540 9 -602 105 -1290 82 -597 139 -1034 255 -1960 130 -1040 184
-1459 196 -1520 11 -55 46 -147 53 -139 2 2 16 62 31 134 55 271 116 673 155
1030 22 204 45 408 50 455 6 47 42 375 80 730 39 355 89 807 111 1005 22 198
53 542 69 765 17 223 44 563 61 755 27 305 31 376 26 555 -11 373 -67 614
-201 860 -75 135 -195 232 -350 279 -37 12 -71 21 -75 21 -3 0 -38 -25 -77
-54z"/>
<path d="M9653 5900 c-92 -13 -111 -31 -179 -166 -89 -178 -108 -254 -108
-439 0 -128 4 -167 28 -269 89 -382 434 -1144 750 -1656 87 -140 338 -556 558
-925 1165 -1950 1287 -2150 1334 -2195 32 -31 45 -39 41 -25 -3 11 -15 70 -27
130 -55 287 -109 481 -481 1720 -323 1074 -393 1298 -539 1725 -62 179 -170
496 -240 705 -180 535 -236 672 -357 867 -146 236 -335 419 -508 491 -51 21
-185 50 -212 46 -4 -1 -31 -5 -60 -9z"/>
</g>
</svg>
