<?xml version="1.0" standalone="no"?>
<!DOCTYPE svg PUBLIC "-//W3C//DTD SVG 20010904//EN"
 "http://www.w3.org/TR/2001/REC-SVG-20010904/DTD/svg10.dtd">
<svg version="1.0" xmlns="http://www.w3.org/2000/svg"
 width="1280.000000pt" height="1239.000000pt" viewBox="0 0 1280.000000 1239.000000"
 preserveAspectRatio="xMidYMid meet">
<metadata>
Created by potrace 1.15, written by Peter Selinger 2001-2017
</metadata>
<g transform="translate(0.000000,1239.000000) scale(0.100000,-0.100000)"
fill="#000000" stroke="none">
<path d="M2785 12383 c-252 -20 -430 -47 -625 -94 -741 -180 -1440 -635 -1798
-1169 -321 -480 -431 -1112 -316 -1814 118 -722 478 -1517 1001 -2211 142
-189 249 -314 479 -565 932 -1014 1604 -1572 2349 -1950 417 -212 882 -377
1280 -454 371 -71 663 -73 1283 -6 671 73 962 44 1319 -132 151 -74 219 -133
489 -420 707 -752 1911 -2203 2788 -3361 l158 -208 36 23 c184 111 574 389
822 586 397 316 463 381 657 646 l87 118 -70 62 c-528 468 -1276 1158 -1772
1636 -135 129 -282 269 -328 310 -196 177 -584 596 -1213 1309 -325 369 -331
377 -365 525 -9 37 -16 109 -16 159 0 140 32 245 111 374 262 425 370 747 394
1178 23 415 -112 950 -357 1415 -384 727 -992 1440 -1794 2106 -1540 1278
-3072 1955 -4394 1942 -91 -1 -183 -3 -205 -5z m9045 -10238 c289 -289 523
-525 520 -525 -3 0 -241 236 -530 525 -289 289 -523 525 -520 525 3 0 241
-236 530 -525z"/>
</g>
</svg>
