<?xml version="1.0" standalone="no"?>
<!DOCTYPE svg PUBLIC "-//W3C//DTD SVG 20010904//EN"
 "http://www.w3.org/TR/2001/REC-SVG-20010904/DTD/svg10.dtd">
<svg version="1.0" xmlns="http://www.w3.org/2000/svg"
 width="3888.000000pt" height="1426.000000pt" viewBox="0 0 3888.000000 1426.000000"
 preserveAspectRatio="xMidYMid meet">
<metadata>
Created by potrace 1.16, written by Peter Selinger 2001-2019
</metadata>
<g transform="translate(0.000000,1426.000000) scale(0.100000,-0.100000)"
fill="#000000" stroke="none">
<path d="M22085 10964 c-193 -24 -339 -100 -453 -237 -52 -63 -106 -171 -127
-252 -19 -76 -19 -231 1 -315 39 -167 169 -334 321 -413 259 -135 559 -91 764
113 125 124 189 279 189 455 0 188 -57 324 -189 456 -94 94 -184 146 -296 173
-67 16 -165 25 -210 20z"/>
<path d="M35305 10563 c-11 -2 -53 -15 -94 -29 -211 -73 -378 -260 -426 -480
-25 -108 -17 -253 19 -357 72 -212 258 -383 471 -433 98 -23 276 -15 365 15
95 33 186 90 260 164 127 128 181 253 188 437 8 214 -44 348 -192 495 -143
142 -273 196 -471 194 -55 -1 -109 -3 -120 -6z"/>
<path d="M20370 10493 c-468 -36 -974 -206 -1335 -448 -162 -108 -264 -193
-416 -344 -265 -267 -449 -544 -526 -796 -26 -84 -27 -102 -27 -270 0 -168 2
-186 28 -270 98 -322 367 -566 789 -716 264 -95 548 -154 1132 -239 390 -56
599 -90 608 -100 5 -4 -29 -65 -75 -136 -577 -887 -841 -1617 -779 -2154 33
-275 161 -490 265 -442 35 15 51 61 90 249 59 277 144 506 287 768 214 390
494 771 955 1300 99 113 196 233 217 267 112 185 118 425 15 607 -68 120 -244
265 -413 341 -128 58 -417 148 -685 213 -146 36 -377 92 -515 126 -269 65
-472 124 -594 171 -111 44 -109 42 -77 84 36 48 188 178 277 238 177 118 423
206 651 233 l56 7 6 -58 c26 -240 134 -468 295 -617 214 -198 491 -292 856
-291 405 0 816 119 1230 355 185 105 308 194 426 307 121 115 163 177 163 241
1 43 -2 47 -34 64 -29 16 -50 18 -130 13 -100 -6 -153 -16 -635 -114 -165 -34
-356 -68 -425 -77 -469 -60 -828 1 -872 147 -23 78 34 270 132 440 88 155 109
260 74 379 -52 174 -182 313 -389 414 -190 93 -384 127 -625 108z"/>
<path d="M32760 10026 c-154 -21 -256 -45 -410 -96 -332 -109 -605 -262 -1008
-567 -92 -70 -222 -168 -290 -219 -156 -118 -311 -216 -532 -337 -248 -136
-285 -172 -227 -224 42 -39 113 -56 260 -61 315 -10 536 60 1164 371 482 239
642 302 902 358 139 29 362 36 521 15 68 -9 127 -19 130 -22 12 -14 -316 -299
-508 -442 -173 -129 -279 -191 -606 -359 -354 -181 -494 -271 -621 -397 -192
-192 -283 -368 -466 -902 -211 -621 -329 -880 -566 -1243 -179 -275 -337 -466
-592 -721 -235 -235 -444 -414 -836 -715 -630 -485 -747 -595 -729 -691 10
-55 41 -69 154 -69 117 0 221 22 412 85 282 94 759 316 1028 478 403 243 701
473 1000 772 429 429 728 868 1011 1486 56 120 104 222 108 226 14 16 546
-104 786 -177 291 -88 538 -195 589 -255 41 -49 32 -86 -55 -238 -156 -275
-415 -633 -917 -1269 -451 -572 -576 -747 -614 -860 -22 -63 -17 -90 19 -104
125 -47 577 210 1048 597 406 332 820 750 1073 1082 85 112 209 305 262 407
97 190 136 432 96 599 -88 368 -534 702 -1246 931 -63 20 -117 38 -119 40 -1
2 33 22 77 44 312 157 745 445 1037 691 53 45 98 80 100 78 2 -2 20 -48 40
-103 193 -519 512 -774 1015 -810 97 -7 316 8 446 30 473 81 1080 335 1258
525 39 42 47 56 44 82 -2 24 -11 37 -38 53 -33 19 -50 20 -295 19 -186 0 -334
-7 -520 -23 -325 -30 -646 -33 -782 -8 -169 31 -240 70 -304 169 -50 79 -66
122 -144 405 -128 461 -197 631 -321 796 -207 275 -578 455 -1143 554 -121 21
-185 26 -371 29 -148 2 -258 -2 -320 -10z"/>
<path d="M8625 9500 c-198 -31 -394 -135 -529 -281 -102 -110 -166 -223 -212
-375 -25 -80 -27 -105 -28 -244 -1 -130 3 -168 21 -235 90 -328 336 -572 669
-661 54 -14 103 -18 224 -18 139 1 164 3 244 28 254 77 453 243 566 471 72
147 94 239 94 405 0 106 -5 154 -22 223 -82 329 -340 588 -664 667 -96 24
-274 33 -363 20z"/>
<path d="M5616 9219 c-218 -36 -405 -159 -976 -639 -330 -278 -466 -385 -625
-492 -149 -101 -256 -153 -377 -183 -107 -28 -134 -49 -117 -93 48 -127 275
-190 525 -147 306 53 584 180 1209 553 377 225 423 244 512 207 50 -21 192
-162 478 -475 133 -146 252 -274 265 -285 50 -45 64 -118 34 -176 -37 -73
-1164 -869 -1807 -1276 l-48 -30 28 -11 c63 -26 195 -53 311 -64 149 -14 368
0 482 32 91 26 236 94 417 196 351 198 524 251 856 261 423 14 645 -51 1086
-316 101 -61 188 -111 192 -111 4 0 47 35 96 78 105 93 154 127 250 175 146
74 264 93 643 102 280 7 446 19 635 46 734 105 1405 412 1966 896 270 234 469
490 469 604 0 48 -21 64 -79 63 -67 -2 -171 -41 -486 -181 -509 -227 -710
-307 -969 -387 -269 -84 -538 -141 -811 -172 -181 -21 -566 -23 -735 -5 -680
73 -1225 294 -1695 687 -71 60 -267 244 -435 409 -330 323 -442 425 -578 522
-242 173 -499 249 -716 212z"/>
<path d="M23465 8991 c-104 -49 -330 -265 -493 -469 -285 -358 -537 -875 -652
-1338 l-22 -91 -92 -17 c-227 -43 -515 -167 -705 -304 -317 -226 -569 -566
-691 -929 -251 -753 -20 -1576 585 -2081 772 -645 1899 -596 2609 114 330 330
522 754 555 1224 10 133 1 339 -19 452 -151 860 -866 1507 -1717 1555 -62 3
-113 10 -113 15 0 21 89 246 147 373 203 442 452 794 749 1056 143 127 176
179 177 281 1 128 -59 188 -188 188 -57 0 -82 -6 -130 -29z m-620 -2087 c341
-55 643 -211 896 -463 239 -239 384 -511 456 -851 28 -132 25 -469 -5 -607
-71 -329 -208 -580 -441 -814 -185 -184 -387 -309 -628 -388 -524 -171 -1097
-54 -1524 312 -358 307 -571 804 -545 1278 27 518 296 988 730 1279 127 85
443 227 462 208 3 -3 -1 -46 -8 -94 -8 -57 -13 -189 -13 -364 0 -243 3 -290
24 -405 62 -347 197 -655 351 -799 89 -83 94 -51 32 184 -113 423 -131 778
-61 1196 17 106 60 304 74 342 5 14 41 11 200 -14z"/>
<path d="M17370 7108 c-304 -28 -627 -139 -865 -295 -445 -293 -749 -764 -831
-1289 -23 -147 -23 -432 0 -574 87 -549 376 -1007 830 -1311 633 -426 1449
-441 2098 -39 684 425 1028 1226 867 2023 -99 491 -422 952 -854 1217 -344
212 -801 310 -1245 268z m540 -231 c481 -115 880 -437 1095 -882 214 -443 216
-944 4 -1384 -160 -334 -399 -577 -725 -739 -449 -224 -959 -225 -1401 -4
-400 201 -689 542 -817 963 -55 182 -69 302 -63 519 7 259 44 411 153 640 171
356 469 644 832 800 214 92 365 120 622 116 166 -3 211 -8 300 -29z"/>
<path d="M3210 6444 c-105 -13 -262 -49 -351 -80 -125 -43 -229 -95 -419 -209
-80 -47 -258 -142 -395 -210 -202 -99 -258 -131 -288 -164 -27 -30 -37 -50
-37 -74 0 -84 145 -147 343 -147 195 0 339 47 589 192 354 207 483 247 788
247 291 1 426 -42 772 -242 92 -54 203 -113 247 -132 250 -107 536 -150 836
-126 306 25 498 91 803 276 193 117 328 180 445 210 133 34 309 47 467 35 217
-17 341 -58 590 -198 367 -206 526 -261 813 -281 249 -17 502 13 708 85 132
46 172 66 419 216 113 68 241 139 285 157 174 73 409 109 630 97 226 -12 359
-54 668 -211 335 -170 488 -212 736 -203 205 9 214 29 31 70 -257 57 -393 116
-642 279 -345 226 -517 292 -829 320 -164 14 -348 7 -490 -21 -178 -34 -297
-81 -524 -205 -365 -200 -480 -235 -784 -235 -180 0 -306 18 -433 60 -110 37
-164 64 -363 185 -384 232 -579 290 -985 289 -364 0 -545 -50 -899 -251 -176
-100 -318 -168 -407 -196 -201 -64 -536 -62 -758 4 -104 31 -192 74 -376 184
-254 152 -391 209 -605 255 -82 18 -141 22 -325 25 -124 2 -241 1 -260 -1z"/>
<path d="M3269 5719 c-295 -21 -481 -86 -834 -293 -110 -65 -243 -138 -295
-163 -293 -140 -340 -165 -379 -203 -68 -66 -54 -128 41 -176 104 -53 264 -68
415 -39 149 28 269 78 450 188 231 140 355 192 533 223 117 20 427 14 530 -10
122 -28 239 -78 387 -163 316 -183 443 -239 657 -285 90 -20 128 -23 366 -22
235 0 276 2 366 22 214 47 358 108 614 262 85 51 192 111 238 132 178 84 425
121 667 99 224 -19 337 -61 661 -244 193 -108 306 -156 455 -191 143 -35 248
-46 419 -46 179 0 291 13 440 51 164 43 291 100 490 223 389 241 519 282 895
280 193 0 218 -3 306 -26 135 -36 221 -73 452 -191 195 -100 321 -149 462
-179 82 -17 362 -17 394 1 13 7 19 17 15 21 -5 5 -63 20 -129 35 -242 54 -413
129 -644 282 -358 238 -561 308 -926 319 -379 12 -562 -36 -950 -250 -197
-109 -279 -146 -389 -175 -131 -34 -238 -44 -416 -38 -293 11 -413 51 -735
244 -315 190 -464 247 -730 279 -170 21 -456 14 -595 -15 -207 -43 -299 -80
-584 -239 -310 -173 -400 -205 -623 -224 -108 -9 -170 -9 -265 0 -228 21 -352
65 -598 211 -363 216 -534 276 -860 301 -146 11 -144 11 -301 -1z"/>
</g>
</svg>
